<?xml version="1.0" standalone="no"?>
<!DOCTYPE svg PUBLIC "-//W3C//DTD SVG 20010904//EN"
 "http://www.w3.org/TR/2001/REC-SVG-20010904/DTD/svg10.dtd">
<svg version="1.0" xmlns="http://www.w3.org/2000/svg"
 width="150px" height="114px" viewBox="0 0 1181.000000 1181.000000"
 preserveAspectRatio="xMidYMid meet">

<g transform="translate(0.000000,1181.000000) scale(0.100000,-0.100000)"
fill="#000000" stroke="none">
<path d="M5310 9875 c0 -48 25 -168 61 -294 17 -57 28 -105 26 -107 -2 -3 -14
15 -27 39 -14 25 -30 44 -39 43 -9 -1 -17 8 -19 22 -4 28 -18 29 -25 0 -8 -29
12 -74 57 -126 41 -50 46 -84 14 -106 -31 -22 -60 -20 -92 5 -22 18 -26 26
-20 54 7 41 -19 103 -75 177 -75 99 -85 155 -39 213 l21 27 -21 21 c-18 18
-23 19 -38 6 -14 -11 -16 -28 -11 -114 4 -80 12 -119 40 -200 125 -352 140
-400 144 -464 l4 -66 -35 39 c-21 23 -48 72 -67 120 -17 45 -42 111 -57 148
-14 37 -43 90 -64 118 -22 29 -56 97 -79 158 -48 128 -58 141 -84 112 -19 -21
-19 -23 18 -133 20 -62 40 -132 44 -157 l6 -45 -21 19 c-12 10 -44 64 -71 119
l-50 100 -29 -61 -29 -61 77 -263 77 -263 50 3 c36 3 54 -1 66 -13 28 -28 19
-43 -53 -89 -41 -25 -45 -55 -11 -72 22 -11 22 -12 5 -23 -18 -10 -17 -13 11
-36 88 -73 263 -135 381 -135 l64 0 -5 -322 c-3 -178 -7 -395 -9 -483 l-5
-160 49 -180 c26 -99 47 -181 46 -183 -2 -1 -23 43 -48 98 l-45 101 -7 -383
c-3 -211 -9 -523 -12 -694 l-7 -311 32 -11 c41 -14 42 -37 1 -28 l-30 6 0 -63
0 -63 41 -23 c48 -27 46 -38 -3 -18 l-35 15 -7 -121 c-3 -66 -6 -206 -6 -311
l0 -191 152 -90 c441 -262 435 -259 403 -223 -16 18 -102 107 -192 198 l-162
165 44 1239 c24 681 46 1240 48 1242 2 2 232 -507 510 -1132 l507 -1136 -65
-140 c-36 -77 -65 -150 -65 -163 0 -13 -7 -28 -15 -32 -18 -11 -237 -475 -228
-483 5 -4 333 -199 731 -434 l723 -426 210 17 210 17 -31 24 c-33 26 -38 47
-15 72 13 14 8 20 -48 57 -60 40 -174 133 -163 133 14 0 223 -94 259 -117 60
-37 117 -83 117 -94 0 -5 -11 -9 -25 -9 -31 0 -32 -10 -2 -38 25 -24 58 -27
166 -15 62 6 63 6 57 34 -6 31 6 37 62 31 27 -4 32 -8 32 -32 l0 -27 308 -6
c287 -6 491 -21 647 -48 37 -6 68 -9 70 -7 3 2 -18 123 -47 268 -48 247 -50
266 -38 313 11 44 11 51 -3 59 -16 8 -182 133 -342 255 -44 34 -105 74 -135
90 -58 29 -71 56 -31 61 18 3 38 -10 80 -51 31 -30 128 -102 216 -159 88 -57
177 -119 197 -137 l38 -33 8 24 c5 12 163 579 352 1258 189 679 346 1238 349
1242 3 3 33 1 66 -4 218 -39 458 116 519 333 17 58 17 63 1 71 -9 6 -39 30
-66 54 -34 30 -62 46 -90 50 -39 7 -60 27 -52 52 8 21 40 13 65 -17 16 -19 44
-34 81 -45 31 -9 63 -19 72 -22 8 -3 15 -1 15 5 0 6 -7 11 -15 11 -17 0 -20
25 -5 35 6 3 10 17 10 31 0 19 -8 28 -32 38 -41 17 -325 83 -393 92 -28 4 -54
12 -60 19 -14 17 -95 42 -226 70 l-114 24 -22 -27 c-67 -83 -103 -187 -103
-302 0 -90 14 -144 41 -164 13 -9 16 -15 8 -18 -17 -6 23 -80 73 -134 l41 -45
-25 -27 c-90 -97 -628 -722 -628 -729 0 -5 29 -21 64 -36 70 -31 123 -76 132
-114 9 -34 0 -38 -48 -24 -36 11 -88 43 -180 110 -11 8 -22 10 -27 5 -5 -5
-189 -217 -410 -471 -221 -254 -405 -464 -409 -467 -4 -2 -56 276 -115 617
-60 342 -111 630 -113 639 -6 21 -170 76 -262 88 -78 10 -112 31 -112 68 0 66
64 70 158 11 68 -43 202 -103 202 -91 0 4 -31 184 -69 401 -45 257 -74 396
-82 402 -8 5 -38 14 -66 20 -44 10 -59 10 -92 -3 -39 -16 -41 -15 -84 12 -54
34 -61 44 -53 76 9 33 66 58 109 48 18 -4 45 -21 62 -39 23 -25 42 -35 78 -40
47 -7 48 -7 42 16 -8 36 -55 312 -55 325 0 6 21 17 47 23 26 7 70 24 99 38
l52 25 -121 237 c-66 130 -122 238 -125 241 -3 3 -7 -1 -9 -8 -3 -7 -14 -17
-25 -23 -15 -8 -24 -7 -39 7 -27 24 -24 33 16 50 19 8 35 18 35 23 0 21 -22
66 -51 102 -18 23 -24 37 -15 33 10 -4 16 -1 16 7 0 11 2 11 8 1 5 -7 40 -27
78 -46 74 -36 106 -64 123 -108 10 -28 10 -28 -28 -28 -24 0 -48 8 -65 21 -31
24 -32 21 -7 -23 11 -18 31 -62 44 -98 14 -36 59 -136 101 -223 l76 -158 36
27 c90 69 169 189 198 300 18 72 20 211 3 268 l-12 38 -390 170 -390 169 -45
-23 c-68 -35 -172 -143 -209 -219 -45 -93 -61 -161 -61 -269 1 -215 118 -397
318 -493 78 -38 83 -42 78 -66 -21 -92 -22 -91 15 -91 42 0 83 -20 87 -43 4
-22 -44 -23 -95 -2 -19 8 -36 15 -38 15 -5 0 -25 -81 -21 -88 3 -5 14 -33 26
-63 l21 -54 -25 30 c-14 17 -25 33 -26 38 0 4 -4 7 -10 7 -15 0 -12 -28 6 -56
19 -28 16 -34 -15 -37 -17 -1 -25 -12 -36 -52 -8 -28 -106 -370 -218 -761
l-203 -710 33 -71 c19 -39 44 -119 57 -179 22 -105 24 -109 47 -106 30 3 73
-38 67 -65 -3 -13 -12 -18 -34 -17 l-31 2 28 -107 c16 -58 36 -123 44 -144 8
-20 15 -48 15 -62 0 -13 20 -63 45 -109 48 -92 54 -113 30 -122 -24 -10 -45
15 -45 53 0 49 -121 283 -146 283 -19 0 -28 21 -14 30 19 12 7 115 -21 181
-13 29 -47 94 -75 144 -49 83 -53 88 -62 65 -5 -14 -49 -166 -97 -338 -49
-172 -92 -307 -96 -300 -16 30 -1432 3385 -1436 3403 -3 16 3 23 30 33 l35 13
-39 96 c-21 53 -37 98 -35 100 2 2 22 -39 46 -91 41 -91 44 -94 66 -84 13 6
24 15 24 20 0 4 6 8 13 8 14 0 108 75 120 96 10 18 -48 129 -79 152 -16 12
-85 166 -221 489 -193 461 -199 473 -225 473 -25 0 -28 -3 -28 -35z m134 -476
c18 -44 15 -65 -3 -31 -20 38 -31 72 -22 72 5 0 16 -19 25 -41z m2482 -572
c22 -42 35 -89 23 -82 -11 7 -43 69 -54 104 -10 33 11 19 31 -22z m-49 -49
c11 -13 26 -34 33 -47 12 -23 12 -24 -26 -16 -53 10 -77 24 -70 42 3 8 6 21 6
29 0 22 34 17 57 -8z m-57 -315 c36 -9 90 -28 120 -42 l55 -25 -36 -4 c-47 -4
-132 18 -239 63 l-85 36 60 -6 c33 -4 89 -14 125 -22z m-305 -133 c25 -63 28
-92 5 -50 -19 36 -51 135 -40 124 5 -5 21 -39 35 -74z m192 -22 c11 -13 23
-31 27 -42 6 -16 2 -18 -31 -11 -45 8 -78 37 -70 59 9 23 50 20 74 -6z m183
-121 c58 -21 140 -92 140 -121 0 -23 -57 -21 -97 3 -17 11 -62 50 -100 86
l-68 66 35 -7 c19 -3 60 -16 90 -27z m-311 -32 c0 -5 -6 1 -14 15 -8 14 -14
30 -14 35 0 6 6 -1 14 -15 8 -14 14 -29 14 -35z m2786 -645 c3 -5 -3 -10 -14
-10 -12 0 -21 5 -21 10 0 6 6 10 14 10 8 0 18 -4 21 -10z m-571 -979 c3 -4 29
-11 57 -13 28 -3 58 -13 67 -22 15 -15 14 -16 -18 -16 -19 1 -46 7 -60 15 -14
8 -40 14 -57 15 -31 0 -41 9 -26 23 9 10 31 9 37 -2z m-2194 -131 c0 -18 -3
-19 -20 -10 -11 6 -20 15 -20 20 0 6 9 10 20 10 13 0 20 -7 20 -20z m2283 -32
c29 -24 63 -51 77 -60 18 -12 7 -10 -37 7 -65 24 -123 60 -123 75 0 7 10 14
28 19 1 1 26 -18 55 -41z m167 12 c11 -8 7 -9 -15 -4 -37 8 -45 14 -19 14 10
0 26 -5 34 -10z m-2175 -221 c28 -29 43 -50 35 -47 -8 3 -38 13 -67 22 -57 19
-78 38 -69 61 11 30 51 16 101 -36z m318 -176 c60 -32 127 -93 127 -115 0 -5
-17 -8 -39 -8 -48 0 -131 53 -211 135 l-55 55 55 -16 c30 -9 86 -32 123 -51z
m1567 -78 c-7 -8 -16 -15 -20 -15 -4 0 -10 7 -14 15 -4 11 2 15 21 15 21 0 24
-2 13 -15z m-615 -296 c15 -29 15 -30 -12 -40 -43 -17 -78 0 -78 36 0 25 5 31
30 36 37 7 42 5 60 -32z m615 -139 c0 -5 -4 -10 -10 -10 -5 0 -10 5 -10 10 0
6 5 10 10 10 6 0 10 -4 10 -10z m-226 -41 c-3 -5 -10 -7 -15 -3 -5 3 -7 10 -3
15 3 5 10 7 15 3 5 -3 7 -10 3 -15z m-396 -123 c35 -40 65 -114 60 -147 -4
-23 -5 -23 -44 17 -38 38 -64 97 -64 143 0 30 13 26 48 -13z m-2383 -24 c-9
-9 -35 8 -35 24 0 16 2 16 20 -1 11 -10 18 -20 15 -23z m934 14 c10 -12 8 -13
-8 -9 -12 3 -21 9 -21 14 0 14 16 11 29 -5z m-2189 -76 c0 -13 -5 -18 -15 -14
-16 7 -19 17 -8 27 12 13 23 7 23 -13z m1231 -246 c33 -25 58 -49 55 -52 -4
-4 -107 53 -135 74 -4 3 9 24 15 24 3 0 32 -21 65 -46z m2154 -367 l28 -52
-32 30 c-18 17 -44 53 -58 80 l-25 50 30 -28 c16 -16 42 -52 57 -80z m-1915
25 c0 -13 -12 -22 -22 -16 -10 6 -1 24 13 24 5 0 9 -4 9 -8z m788 -45 c7 -7 7
-18 2 -27 -7 -11 -11 -11 -24 -1 -8 7 -12 19 -9 27 6 17 17 18 31 1z m-63 -97
c10 -11 81 -62 159 -114 77 -52 155 -107 171 -121 l30 -25 -27 10 c-70 25 -96
42 -279 191 -24 20 -56 39 -71 43 -16 3 -28 13 -28 21 0 21 24 19 45 -5z
m-576 -111 c20 -17 79 -58 131 -91 95 -60 146 -99 80 -61 -248 143 -305 182
-266 183 10 0 35 -14 55 -31z m523 -25 c14 -8 55 -36 90 -62 35 -27 74 -54 86
-61 13 -7 21 -15 18 -18 -3 -3 -41 15 -84 40 -43 25 -98 50 -121 57 -51 14
-90 48 -70 61 15 9 39 4 81 -17z m0 -307 c76 -49 125 -97 101 -97 -19 0 -150
84 -228 146 -47 37 -85 68 -85 70 0 7 137 -70 212 -119z m1258 73 c13 -9 13
-11 0 -19 -10 -7 -17 -6 -22 2 -17 26 -5 35 22 17z"/>
<path d="M5547 9679 c88 -171 124 -233 143 -242 26 -13 35 -44 12 -39 -10 2
-10 -4 2 -25 12 -25 12 -31 -1 -53 -14 -24 -11 -32 42 -150 53 -116 79 -167
142 -278 l25 -44 25 37 c35 51 78 149 94 215 17 68 17 240 0 300 -29 100 -52
150 -70 150 -30 0 -47 28 -33 51 11 17 4 28 -64 97 -69 70 -74 70 -30 0 8 -13
17 -34 21 -48 12 -40 -13 -12 -81 86 -46 67 -69 91 -105 109 -44 23 -190 65
-224 65 -12 0 12 -57 102 -231z"/>
<path d="M4714 9211 c3 -40 11 -94 17 -120 15 -63 81 -199 118 -241 l30 -35
-21 75 c-26 95 -127 372 -140 385 -7 7 -8 -14 -4 -64z"/>
<path d="M7900 9051 c-35 -7 -34 -7 40 -30 41 -12 106 -32 143 -43 61 -19 73
-20 123 -8 31 8 51 17 46 22 -5 5 -41 20 -81 34 -76 27 -207 39 -271 25z"/>
<path d="M7792 9021 c-9 -5 38 -30 140 -75 262 -114 573 -244 577 -240 2 1 -7
22 -20 45 -22 39 -29 43 -94 59 -38 10 -97 23 -130 30 -70 14 -81 22 -100 66
-9 23 -22 35 -42 39 -15 4 -87 24 -158 46 -137 41 -152 44 -173 30z"/>
<path d="M3135 8146 c-144 -28 -272 -110 -355 -227 -159 -227 -129 -535 69
-721 115 -109 237 -158 390 -158 l82 0 -106 106 c-58 59 -104 109 -101 111 9
9 131 -61 256 -148 107 -72 259 -208 260 -231 1 -25 -120 26 -204 86 -28 19
-52 34 -54 32 -2 -2 116 -561 263 -1241 146 -680 265 -1241 263 -1246 -2 -4
-142 64 -313 152 -316 162 -376 186 -389 154 -10 -26 5 -39 164 -142 80 -53
156 -106 170 -118 14 -13 115 -83 225 -156 183 -122 203 -133 241 -131 47 3
69 -15 59 -48 -5 -14 -1 -22 12 -26 52 -18 148 -67 204 -105 35 -23 145 -91
244 -150 99 -59 205 -123 235 -142 30 -19 83 -44 117 -57 34 -12 69 -30 79
-41 15 -17 15 -19 0 -25 -10 -4 -30 4 -51 20 -39 30 -111 64 -229 107 -43 16
-96 45 -118 64 -57 49 -172 105 -323 159 -145 52 -169 66 -445 250 -107 71
-219 142 -249 158 -61 32 -125 37 -173 12 -24 -12 -45 -15 -89 -10 -86 10
-276 59 -426 109 l-131 45 -4 -39 c-3 -37 -1 -41 37 -63 22 -13 266 -137 541
-275 470 -236 637 -325 464 -247 -258 116 -1012 477 -1342 642 -93 46 -168 82
-168 79 0 -3 681 -893 712 -930 5 -5 101 -130 214 -278 l204 -267 52 -268 c29
-147 53 -269 55 -271 1 -2 8 1 15 7 7 5 62 37 122 70 l108 61 -56 32 c-31 17
-55 34 -52 36 3 3 35 -9 71 -26 l66 -31 82 42 c45 22 142 67 215 98 l133 58
-36 22 c-19 12 -35 23 -35 25 0 3 9 9 21 16 18 9 26 6 53 -20 l32 -31 80 32
c43 17 80 33 82 34 2 1 -4 14 -14 28 -14 22 -15 37 -8 89 l10 62 17 -33 c10
-18 21 -55 24 -83 3 -27 7 -49 8 -49 1 0 78 26 171 59 93 32 261 86 374 121
257 77 240 71 210 80 -14 4 -59 21 -100 37 -41 17 -93 34 -114 37 -79 15 -251
113 -476 274 -74 53 -200 140 -279 194 -80 54 -141 98 -138 98 18 0 180 -88
257 -139 60 -41 102 -61 145 -70 83 -18 135 -43 327 -155 92 -53 171 -96 176
-96 6 0 23 -11 39 -24 15 -13 66 -42 113 -66 47 -23 95 -51 107 -62 l22 -20
298 75 c164 41 310 78 326 81 15 4 27 13 27 21 0 17 21 20 36 6 5 -6 70 3 169
25 211 45 535 106 769 145 155 25 195 35 221 55 17 13 46 27 63 30 18 4 32 10
32 15 0 9 -70 43 -180 88 -86 36 -126 63 -116 80 12 19 36 13 76 -19 21 -16
108 -64 193 -106 l156 -76 193 22 c106 12 197 23 202 24 8 2 -100 68 -137 84
-4 2 -6 -7 -5 -20 3 -19 -2 -23 -27 -23 -28 0 -31 4 -39 46 l-9 45 -594 355
c-328 195 -599 355 -604 357 -4 2 -15 -12 -25 -30 -9 -18 -18 -34 -19 -36 -2
-2 -51 47 -111 108 -102 104 -119 117 -268 202 -179 102 -291 169 -417 250
l-87 56 -8 -181 -9 -182 -678 873 c-373 479 -681 874 -685 876 -7 4 41 -251
52 -280 5 -14 53 -30 117 -39 26 -3 55 -12 65 -19 15 -12 16 -16 5 -30 -18
-21 -50 -20 -81 4 -28 22 -100 28 -100 8 0 -19 68 -350 76 -373 13 -36 -4 -11
-34 50 -30 61 -61 162 -82 269 -9 43 -20 67 -44 90 -51 52 -101 160 -156 340
-28 94 -58 182 -66 197 -8 16 -14 39 -14 52 0 46 -30 110 -86 183 l-57 74 59
63 c327 349 106 903 -376 941 -36 3 -96 -1 -135 -8z m-218 -696 c56 -46 100
-86 98 -88 -6 -6 -48 19 -98 59 -38 30 -54 37 -76 33 -23 -5 -29 -2 -34 18 -9
33 -8 70 1 66 4 -1 54 -41 109 -88z m1 -140 c26 -39 17 -48 -27 -26 -36 19
-45 32 -37 52 9 24 38 12 64 -26z m1748 -2010 c15 -6 25 -13 22 -15 -3 -3 -20
1 -39 9 -38 17 -25 21 17 6z m-52 -326 c9 -3 13 -10 10 -15 -8 -14 -21 -11
-28 6 -6 17 -4 18 18 9z m-409 -73 c0 -8 -4 -16 -10 -18 -16 -5 -38 14 -30 26
9 16 40 9 40 -8z m1325 -16 c16 -8 34 -24 40 -34 5 -11 78 -55 162 -99 226
-117 349 -192 317 -192 -14 0 -56 18 -93 41 -37 22 -84 43 -104 46 -20 3 -52
19 -70 35 -18 16 -84 54 -145 84 -141 71 -182 100 -166 120 15 18 23 18 59 -1z
m-113 -162 c3 -7 -7 -19 -21 -28 -43 -28 -90 17 -55 52 14 14 70 -5 76 -24z
m-607 -25 c0 -12 -44 -10 -58 4 -8 8 -8 17 -1 30 10 19 11 19 35 -3 13 -12 24
-26 24 -31z m-826 -137 c3 -5 -1 -12 -10 -15 -20 -8 -29 -1 -19 13 8 13 22 14
29 2z m1119 -27 c3 -3 3 -12 0 -20 -4 -10 -10 -11 -24 -3 -11 5 -17 14 -14 20
7 10 28 12 38 3z m588 -26 c62 -33 75 -56 29 -50 -32 4 -124 48 -140 67 -23
28 44 17 111 -17z m-466 -58 c7 -12 -2 -12 -30 0 -19 8 -19 9 2 9 12 1 25 -3
28 -9z m25 -35 c0 -15 -6 -25 -14 -25 -21 0 -27 28 -8 39 23 14 22 14 22 -14z
m-2125 -15 c3 -5 -1 -10 -9 -10 -9 0 -16 5 -16 10 0 6 4 10 9 10 6 0 13 -4 16
-10z m3613 -176 c53 -20 155 -66 226 -101 71 -36 143 -67 160 -69 65 -8 89
-17 122 -46 29 -26 34 -36 34 -74 0 -39 -3 -46 -27 -55 -36 -13 -72 2 -115 50
-20 22 -99 74 -198 130 -165 94 -320 189 -320 197 0 9 26 2 118 -32z m-772
-256 c41 -13 61 -23 51 -26 -17 -3 -137 35 -137 44 0 8 19 4 86 -18z m898 -49
c20 -12 36 -23 36 -25 0 -10 -19 -2 -50 21 -41 30 -34 33 14 4z m-1680 -220
c-3 -5 -10 -7 -15 -3 -5 3 -7 10 -3 15 3 5 10 7 15 3 5 -3 7 -10 3 -15z
m-1526 -180 c23 -17 42 -35 42 -40 0 -14 -68 -11 -99 5 -35 18 -55 42 -46 56
12 20 61 10 103 -21z m697 -89 c8 -13 -15 -13 -35 0 -12 8 -11 10 7 10 12 0
25 -4 28 -10z m426 -23 c-13 -13 -26 -3 -16 12 3 6 11 8 17 5 6 -4 6 -10 -1
-17z m-913 -275 c2 -7 -6 -12 -17 -12 -21 0 -27 11 -14 24 9 9 26 2 31 -12z"/>
<path d="M10182 7930 c-34 -16 -79 -42 -98 -57 -36 -27 -36 -27 -12 -36 12 -5
50 -10 83 -12 33 -1 130 -21 216 -43 215 -56 429 -78 429 -43 0 4 -16 29 -35
55 l-36 46 -67 0 c-37 0 -84 -5 -105 -11 -30 -8 -49 -7 -90 7 -72 23 -175 76
-159 82 20 6 -16 42 -42 42 -12 0 -49 -13 -84 -30z m512 -130 c8 -10 2 -11
-29 -5 -60 10 -80 27 -26 21 24 -2 49 -10 55 -16z"/>
<path d="M1291 6259 c-24 -4 -74 -23 -110 -40 l-66 -31 100 -50 c108 -53 90
-55 -52 -7 l-84 28 -32 -29 c-27 -25 -30 -31 -17 -40 41 -27 171 -73 262 -91
55 -12 119 -27 141 -35 22 -8 42 -12 45 -9 2 2 -15 73 -40 157 -44 152 -44
153 -74 155 -16 1 -49 -3 -73 -8z"/>
<path d="M1476 6147 c17 -62 37 -139 44 -170 11 -45 20 -62 50 -86 21 -17 51
-33 66 -37 16 -4 67 -28 114 -55 104 -59 120 -61 120 -15 0 43 -17 133 -31
169 -15 37 -344 307 -374 307 l-22 0 33 -113z"/>
<path d="M956 6002 c-14 -28 -14 -30 12 -55 15 -14 56 -37 92 -51 83 -31 180
-75 180 -80 0 -2 -62 20 -137 50 -76 30 -147 53 -158 52 -24 -4 -33 -34 -34
-123 -1 -84 11 -140 45 -211 25 -52 25 -53 132 -98 59 -24 159 -64 222 -87 63
-23 123 -50 132 -61 14 -16 25 -19 58 -13 22 4 42 10 44 14 3 4 -27 23 -66 42
-112 53 -208 120 -270 188 -32 34 -58 66 -58 71 0 17 50 22 96 11 25 -6 49 -9
53 -6 5 2 70 -15 145 -40 75 -25 138 -45 141 -45 8 0 6 20 -10 74 -16 53 -16
53 -86 81 -84 32 -86 45 -3 16 32 -12 59 -19 61 -17 3 2 -1 21 -7 43 -13 43
-26 50 -365 193 -211 90 -201 87 -219 52z m84 -232 c99 -51 90 -137 -12 -109
-70 18 -138 105 -95 122 27 11 70 6 107 -13z m240 -10 c0 -6 -9 -10 -20 -10
-13 0 -20 7 -20 20 0 18 3 19 20 10 11 -6 20 -15 20 -20z"/>
<path d="M1574 5753 c2 -10 7 -28 11 -40 8 -27 74 -50 87 -30 18 28 7 45 -41
66 -60 25 -64 26 -57 4z"/>
<path d="M1600 5664 c0 -4 7 -33 16 -63 l15 -56 189 -64 c317 -107 543 -229
700 -376 55 -52 89 -76 130 -89 30 -11 127 -52 215 -92 264 -119 287 -127 296
-112 16 24 9 57 -13 72 -13 8 -224 117 -471 244 -289 149 -487 244 -561 270
-64 23 -144 60 -184 87 -40 25 -118 69 -174 97 -57 28 -105 54 -108 58 -8 12
-50 31 -50 24z m1200 -634 c-9 -17 -30 -28 -30 -16 0 2 -3 11 -6 20 -5 12 0
16 20 16 24 0 25 -2 16 -20z"/>
<path d="M1100 5410 c44 -36 144 -79 203 -88 31 -5 54 -5 51 0 -10 16 -144 78
-201 93 -75 20 -83 19 -53 -5z"/>
<path d="M2199 5199 c-18 -11 -1 -24 51 -39 55 -16 69 -12 40 10 -35 27 -74
40 -91 29z"/>
<path d="M2423 5148 c0 -7 -2 -19 -4 -27 -4 -13 65 -45 85 -38 10 3 -59 77
-73 77 -4 0 -8 -6 -8 -12z"/>
<path d="M2080 4896 c0 -26 58 -77 117 -102 36 -16 105 -49 152 -73 47 -25
107 -55 133 -69 25 -13 66 -26 90 -28 36 -4 0 17 -209 124 -138 71 -259 134
-267 142 -9 7 -16 9 -16 6z"/>
<path d="M2175 4766 c26 -35 162 -103 320 -161 61 -22 67 -23 45 -6 -25 20
-371 201 -384 201 -4 0 5 -15 19 -34z"/>
<path d="M3000 4641 c0 -7 13 -31 28 -54 16 -23 31 -49 34 -57 4 -10 44 -23
125 -38 102 -20 126 -22 163 -12 42 11 44 13 25 27 -25 19 -202 108 -234 118
-22 7 -24 5 -18 -24 6 -26 4 -31 -13 -31 -11 0 -41 19 -65 41 -25 23 -45 36
-45 30z"/>
<path d="M2856 4612 c-3 -5 11 -14 32 -20 l37 -11 -24 19 c-25 22 -37 25 -45
12z"/>
</g>
</svg>
